 <svg  version="1.0" xmlns="http://www.w3.org/2000/svg"  width="300.000000pt" height="303.000000pt" viewBox="0 0 300.000000 303.000000"  preserveAspectRatio="xMidYMid meet">  <g transform="translate(0.000000,303.000000) scale(0.050000,-0.050000)" fill="#ffffff" stroke="none"> <path d="M3200 6049 c0 -7 22 -40 49 -72 27 -32 44 -71 38 -88 -16 -41 26 -36 54 6 21 33 22 33 11 0 -7 -24 0 -35 25 -35 20 0 37 11 37 25 1 14 8 40 15 59 11 26 6 31 -27 22 -34 -9 -42 -1 -42 38 0 42 -10 49 -80 53 -44 2 -80 -1 -80 -8z"/> <path d="M3530 6040 c7 -11 3 -20 -9 -20 -36 0 -23 -40 14 -41 57 -1 114 -94 82 -133 -22 -26 -22 -34 -2 -41 14 -5 38 -21 54 -37 34 -34 84 -18 97 32 13 52 -106 213 -151 204 -21 -4 -35 5 -35 25 0 17 -14 31 -31 31 -17 0 -26 -9 -19 -20z"/> <path d="M5434 6045 c-4 -8 -6 -51 -3 -95 15 -209 14 -202 23 -155 9 44 57 84 94 78 23 -4 30 106 8 120 -9 5 -16 18 -16 29 0 11 10 14 23 6 15 -9 18 -5 9 9 -26 43 -52 2 -43 -68 7 -53 0 -73 -30 -90 -37 -19 -39 -15 -30 70 8 80 -12 137 -35 96z"/> <path d="M5633 6044 c-13 -21 -5 -78 13 -97 7 -7 7 -23 -2 -35 -9 -12 -10 -53 -3 -92 9 -43 15 -53 16 -26 3 43 52 85 91 79 23 -4 30 106 8 120 -9 5 -16 18 -16 29 0 11 10 14 23 6 15 -9 18 -5 9 9 -26 43 -52 2 -43 -68 7 -53 0 -73 -30 -90 -37 -19 -39 -15 -30 70 8 82 -12 135 -36 95z"/> <path d="M5834 6045 c-4 -8 -6 -51 -3 -95 15 -209 14 -202 23 -155 9 44 57 84 94 78 23 -4 30 106 8 120 -9 5 -16 18 -16 29 0 11 10 14 23 6 15 -9 18 -5 9 9 -26 43 -52 2 -43 -68 7 -53 0 -73 -30 -90 -37 -19 -39 -15 -30 70 8 80 -12 137 -35 96z"/> <path d="M1857 5990 c-922 -397 -1621 -1309 -1798 -2345 -56 -327 -54 -472 6 -454 62 19 61 18 61 109 0 54 9 80 27 80 15 0 27 -13 27 -30 0 -35 31 -40 51 -8 65 105 60 281 -6 215 -18 -18 -27 -15 -38 13 -10 25 2 47 40 75 36 26 53 57 53 96 l0 58 -69 -69 c-85 -86 -113 -56 -39 41 62 82 142 135 122 81 -18 -46 5 -40 113 28 52 33 108 60 125 60 17 0 26 7 20 16 -14 23 33 154 71 198 68 79 58 92 -16 21 -88 -84 -107 -91 -107 -40 -1 69 -49 134 -100 135 -77 0 -85 139 -11 173 28 13 51 31 51 41 0 16 30 19 192 17 95 -2 181 66 127 100 -28 18 -66 25 -109 22 -49 -3 -89 90 -69 162 27 95 63 121 180 125 54 2 115 17 134 33 45 38 149 85 177 80 12 -2 21 10 21 27 0 32 0 33 -69 40 -135 14 -121 120 35 272 68 66 130 117 137 113 8 -4 43 -19 79 -33 36 -14 65 -33 65 -43 0 -22 119 -63 175 -60 68 3 85 10 85 34 0 18 -26 27 -75 28 -114 1 -167 79 -92 138 29 22 65 41 80 41 16 0 50 14 77 32 33 21 80 30 140 25 92 -7 122 10 50 29 -22 6 -40 25 -40 42 0 18 -10 32 -21 32 -12 0 -8 14 10 31 17 18 31 42 31 55 1 18 4 18 16 0 20 -31 90 -20 100 16 4 15 29 46 54 68 46 41 86 131 56 129 -9 0 -67 -23 -129 -49z m-1421 -1974 c40 -40 28 -46 -81 -45 -142 2 -148 5 -104 38 47 36 152 40 185 7z"/> <path d="M4000 6013 c0 -16 14 -34 31 -41 18 -6 26 -3 19 8 -7 11 2 20 19 20 17 0 31 -16 31 -36 0 -22 15 -35 39 -35 21 0 34 7 28 15 -14 24 4 20 83 -18 62 -30 71 -43 67 -95 -4 -46 2 -59 24 -53 99 29 177 -21 178 -114 1 -25 16 -50 36 -56 64 -20 144 -70 209 -128 35 -32 89 -64 120 -71 118 -26 172 -260 79 -346 l-60 -56 60 -63 c76 -82 93 -80 101 11 5 61 15 76 53 82 72 10 128 -53 114 -129 -9 -45 -2 -70 22 -90 19 -16 28 -17 21 -4 -19 31 24 56 50 30 23 -23 -32 -94 -71 -94 -11 0 -34 -29 -51 -64 -18 -36 -41 -63 -52 -61 -42 7 -131 -27 -120 -46 7 -10 21 -19 32 -19 11 0 15 9 7 21 -12 21 49 17 111 -6 168 -63 240 -55 177 20 -46 54 -36 134 18 141 42 6 99 -72 88 -121 -2 -8 19 -15 46 -15 40 0 52 -13 62 -71 17 -91 11 -95 -122 -97 -110 -2 -112 -3 -104 -57 4 -30 4 -50 -2 -45 -23 24 -83 -56 -61 -82 17 -20 9 -30 -34 -40 l-55 -14 57 -45 c75 -60 121 -23 101 82 -17 91 37 95 120 8 64 -67 109 -45 109 51 0 77 55 129 85 80 46 -73 52 -210 11 -232 -48 -26 -19 -83 75 -143 64 -42 100 -129 44 -109 -14 5 -40 -4 -58 -20 -30 -26 -39 -21 -89 42 -43 53 -63 65 -82 49 -30 -25 -34 -71 -8 -80 10 -4 21 -25 25 -47 4 -23 28 -45 57 -53 28 -6 66 -19 85 -27 27 -11 35 -5 35 28 0 23 8 42 18 42 28 0 38 -46 21 -90 -29 -72 -20 -111 29 -129 61 -23 87 -61 32 -47 -49 13 -54 -30 -5 -48 19 -6 55 -30 80 -53 l45 -40 -10 98 c-38 386 -312 1131 -474 1293 -20 20 -35 41 -33 48 9 44 -346 463 -535 630 -321 285 -928 632 -928 531z"/> <path d="M2411 5962 c-19 -31 63 -102 118 -102 27 0 53 -7 59 -16 5 -9 53 -18 106 -19 71 -3 86 1 56 14 -22 10 -69 19 -105 20 -44 1 -65 11 -65 31 0 17 -9 30 -20 30 -11 0 -18 11 -15 25 6 31 -116 46 -134 17z"/> <path d="M3922 5961 c-16 -9 -42 -12 -58 -6 -23 9 -28 1 -19 -32 6 -23 4 -43 -5 -43 -8 0 -20 -17 -25 -39 -11 -42 19 -61 96 -61 30 0 64 -22 92 -60 58 -78 77 -76 77 10 0 39 -7 68 -15 66 -45 -12 -101 29 -96 70 7 71 -14 115 -47 95z"/> <path d="M2066 5932 c7 -16 -2 -26 -20 -25 -18 2 -36 -8 -41 -22 -13 -38 148 -33 162 5 7 17 29 30 51 30 22 0 45 9 52 20 8 12 -31 20 -101 20 -88 0 -111 -6 -103 -28z"/> <path d="M2989 5818 c-21 -34 22 -63 70 -48 42 13 42 15 7 41 -44 34 -60 35 -77 7z"/> <path d="M1955 5729 c-34 -19 -55 -47 -56 -75 0 -43 -1 -43 -30 -5 -16 21 -29 30 -29 19 0 -35 46 -68 95 -68 48 0 58 53 15 85 -11 8 0 15 25 15 27 0 45 12 45 30 0 36 4 36 -65 -1z"/> <path d="M3405 5707 c-14 -6 -25 -27 -25 -48 0 -43 77 -103 107 -85 14 9 13 16 -3 21 -13 5 -24 35 -24 67 0 58 -8 64 -55 45z"/> <path d="M4328 5670 c6 -33 0 -50 -17 -50 -14 0 -38 -15 -54 -34 -29 -35 -30 -36 73 6 17 7 30 2 30 -10 0 -12 9 -22 19 -22 11 0 16 11 12 25 -4 14 -13 50 -20 80 -15 69 -55 73 -43 5z"/> <path d="M5840 5699 c0 -14 6 -20 13 -13 16 17 87 -22 87 -48 0 -11 -7 -16 -17 -10 -9 6 -16 -2 -16 -18 0 -16 7 -24 16 -18 10 6 17 1 17 -11 0 -11 7 -21 17 -21 14 0 15 67 2 100 -2 6 -3 15 -2 22 0 6 -10 12 -23 12 -13 1 -40 8 -59 16 -23 9 -35 5 -35 -11z"/> <path d="M5735 5688 c-7 -7 -7 -26 0 -43 7 -19 3 -26 -8 -19 -11 7 -20 0 -20 -16 0 -16 7 -24 16 -18 10 6 17 1 17 -11 0 -11 9 -21 19 -21 11 0 15 14 8 30 -6 17 0 30 16 31 18 0 15 7 -8 21 -20 11 -31 29 -24 39 13 21 2 26 -16 7z"/> <path d="M3180 5603 c-26 -58 5 -90 70 -70 60 18 64 28 20 59 -34 25 -35 32 -10 48 23 14 20 18 -14 15 -25 -2 -53 -25 -66 -52z"/> <path d="M2638 5626 c54 -21 -98 -65 -239 -68 -76 -2 -139 -12 -139 -22 0 -10 -14 -5 -31 13 -40 39 -71 40 -56 1 6 -16 19 -25 28 -20 9 6 21 3 27 -7 6 -10 38 -23 72 -30 46 -9 60 -23 60 -59 0 -107 -137 -160 -320 -124 -52 10 -62 8 -40 -8 18 -13 21 -22 6 -22 -13 0 -37 14 -53 30 -46 46 -112 39 -103 -10 5 -28 -3 -40 -29 -40 -56 0 -61 -46 -10 -85 45 -34 47 -33 60 7 9 29 19 36 33 22 12 -12 33 -16 47 -11 36 14 132 -52 116 -80 -8 -14 -2 -13 14 2 15 14 39 25 55 25 32 0 131 95 150 145 7 19 22 35 33 35 11 0 34 27 51 60 27 53 39 58 110 51 45 -4 75 1 69 11 -6 10 3 24 20 30 17 7 31 29 31 50 0 23 14 38 36 38 37 0 84 36 84 64 0 9 -25 15 -55 14 -30 0 -42 -6 -27 -12z"/> <path d="M3604 5579 c-56 -89 49 -162 185 -128 28 8 51 5 51 -6 0 -11 23 -15 50 -10 41 8 50 21 50 75 l0 65 -125 10 c-69 5 -139 15 -155 22 -19 9 -40 -2 -56 -28z"/> <path d="M2851 5553 c-21 -15 -31 -37 -23 -50 8 -13 5 -23 -6 -23 -11 0 -16 -12 -10 -27 7 -19 -14 -31 -71 -41 -45 -7 -81 -20 -81 -30 0 -21 117 -46 143 -30 11 6 66 29 123 49 84 30 93 38 48 38 -32 1 -51 10 -44 21 7 11 2 20 -11 20 -14 0 -20 20 -14 50 11 57 -1 62 -54 23z"/> <path d="M4580 5401 c0 -52 28 -135 80 -241 8 -16 31 -30 52 -29 21 0 45 -9 53 -20 8 -12 15 -7 15 13 0 23 11 31 30 23 34 -13 41 24 9 44 -14 8 -9 22 13 38 40 29 -15 75 -68 56 -14 -5 -24 -1 -22 8 7 43 -30 103 -82 134 -75 44 -80 43 -80 -26z"/> <path d="M5842 5395 c2 -34 5 -36 12 -10 5 19 27 35 49 35 21 0 34 -8 28 -19 -6 -10 -3 -24 9 -31 11 -7 20 6 20 29 0 32 -13 41 -60 41 -50 0 -60 -8 -58 -45z"/> <path d="M1760 5402 l-50 -14 44 -24 c47 -26 112 -12 101 22 -10 29 -35 33 -95 16z"/> <path d="M2406 5395 c7 -19 4 -35 -6 -35 -10 0 -27 -16 -38 -37 -25 -45 43 -47 87 -2 23 25 21 35 -14 69 -35 34 -39 35 -29 5z"/> <path d="M3390 5400 c-7 -11 -5 -20 4 -21 9 0 -6 -13 -34 -29 -48 -28 -49 -29 -6 -29 24 -1 54 15 66 34 20 31 22 31 14 -7 -7 -35 1 -43 44 -43 85 -1 94 -5 62 -25 -24 -15 -18 -19 23 -20 30 0 58 -11 64 -25 6 -16 10 -13 11 8 1 17 -11 43 -28 57 -16 14 -30 37 -30 52 0 17 -21 28 -51 28 -29 0 -68 9 -89 20 -25 13 -42 13 -50 0z"/> <path d="M3031 5376 c-21 -12 -61 -48 -87 -79 -26 -31 -59 -57 -74 -57 -25 0 -180 -197 -166 -210 3 -4 28 11 54 32 26 22 42 44 36 51 -15 14 50 65 136 107 33 17 67 41 76 55 9 14 31 25 50 25 29 1 30 3 4 20 -16 11 -20 20 -9 20 12 0 39 13 60 29 51 39 -16 44 -80 7z"/> <path d="M4395 5386 c-50 -13 -43 -31 25 -70 48 -27 60 -28 60 -7 0 39 -22 91 -37 89 -7 -2 -29 -7 -48 -12z"/> <path d="M5734 5327 c-8 -7 -4 -25 9 -40 16 -20 16 -27 -2 -27 -13 0 -18 -9 -11 -20 7 -11 -8 -21 -34 -22 -41 -2 -42 -4 -6 -13 22 -5 47 -20 55 -32 10 -17 14 -17 15 1 0 12 16 27 35 32 32 8 31 10 -2 12 -24 1 -33 12 -26 31 6 17 2 35 -8 42 -11 6 -14 20 -8 30 13 22 2 25 -17 6z"/> <path d="M5934 5327 c-8 -7 -4 -25 9 -40 16 -20 16 -27 -2 -27 -13 0 -17 -10 -9 -23 9 -16 -2 -20 -35 -13 -39 7 -49 0 -51 -33 -1 -22 2 -30 8 -16 11 30 86 34 86 4 0 -12 12 -10 28 5 17 17 20 31 7 39 -11 7 -14 22 -7 33 7 12 3 27 -8 34 -11 7 -15 21 -9 31 13 22 2 25 -17 6z"/> <path d="M3111 5269 c-36 -27 -33 -29 45 -29 46 0 84 7 84 16 0 9 56 13 125 8 69 -5 121 -4 115 2 -27 28 -331 31 -369 3z"/> <path d="M1590 5244 c-33 -19 -63 -41 -67 -49 -10 -23 -52 -18 -80 10 -14 14 -63 25 -109 26 -46 0 -97 7 -114 15 -29 13 -139 -54 -120 -73 6 -5 51 -12 100 -14 50 -3 110 -17 134 -32 50 -30 186 -37 186 -9 0 10 -11 23 -25 29 -14 5 -7 10 15 11 22 1 52 -6 67 -16 35 -22 133 3 133 34 0 13 -9 23 -20 23 -11 -1 -24 17 -30 39 -10 38 -12 39 -70 6z"/> <path d="M2735 5238 c-20 -11 -51 -18 -70 -15 -19 2 -56 -3 -82 -11 -32 -11 -53 -8 -63 9 -17 27 -39 14 -132 -79 -32 -32 -48 -38 -48 -20 -1 23 -4 22 -20 -2 -11 -16 -20 -22 -20 -12 0 10 -36 -20 -80 -68 -44 -48 -80 -76 -80 -63 0 13 -29 -11 -66 -52 -113 -129 -120 -143 -99 -170 11 -14 13 -42 4 -65 -14 -35 -16 -33 -18 15 -1 73 -22 69 -77 -16 -25 -39 -54 -65 -65 -59 -10 7 -19 -2 -19 -19 0 -17 -7 -31 -16 -31 -9 0 -33 -38 -53 -85 -20 -47 -55 -110 -76 -142 -50 -71 -138 -318 -118 -332 21 -16 16 -60 -9 -77 -37 -24 -65 -134 -45 -171 11 -18 14 -42 8 -52 -6 -10 18 -24 54 -32 51 -11 57 -17 29 -27 -34 -13 -34 -16 5 -61 83 -95 19 -105 -68 -10 -29 32 -49 46 -42 29 6 -16 17 -46 23 -65 7 -19 21 -35 30 -35 10 0 18 -8 18 -17 0 -9 -34 -16 -75 -15 -57 2 -74 10 -70 34 3 18 -8 44 -25 58 -36 30 -40 162 -6 196 13 13 17 24 8 24 -9 0 -7 12 5 27 13 15 25 73 27 130 4 94 35 151 37 68 0 -19 17 12 38 69 20 57 43 113 50 125 7 11 0 21 -16 21 -16 0 -42 -34 -59 -75 l-31 -75 -20 50 c-11 28 -22 41 -24 30 -2 -11 -7 -38 -11 -60 -3 -22 -10 -58 -15 -80 -6 -22 -11 -49 -13 -60 -1 -11 -10 -3 -18 18 -20 52 -86 -121 -92 -243 -3 -46 -17 -99 -31 -117 -23 -27 -20 -37 22 -69 27 -21 38 -38 24 -39 -58 -1 -15 -142 62 -205 24 -19 33 -34 21 -35 -13 0 -18 -21 -13 -50 6 -29 19 -44 32 -37 14 8 13 2 -2 -14 -14 -15 -24 -63 -23 -108 l2 -81 20 70 20 69 27 -49 c15 -28 28 -64 28 -80 1 -25 90 -140 108 -140 14 0 -1 79 -20 103 -48 62 -54 84 -20 71 21 -8 33 -3 33 14 0 15 -12 32 -27 38 -31 12 -84 117 -103 204 -17 76 88 -78 172 -253 58 -121 97 -162 99 -103 0 27 8 22 30 -19 17 -30 38 -55 47 -55 25 0 41 126 20 149 -10 10 -18 28 -18 40 0 12 25 -6 55 -39 66 -72 145 -89 145 -31 0 59 242 73 550 32 111 -15 117 -13 80 16 -40 31 -39 31 4 20 24 -6 64 3 89 21 25 18 62 32 81 32 31 0 46 32 39 83 -4 31 314 6 352 -28 21 -19 47 -35 57 -35 11 0 59 -41 108 -90 l89 -90 -45 -31 c-51 -36 -58 -69 -14 -69 16 0 34 -25 40 -55 38 -195 46 -242 48 -301 2 -36 -6 -82 -18 -103 -12 -23 -13 -43 -2 -50 10 -6 25 16 32 49 7 33 21 65 31 71 10 6 14 -1 9 -15 -5 -14 -2 -53 8 -86 10 -33 20 -46 22 -30 1 19 9 13 21 -15 19 -49 79 -62 79 -17 0 15 14 38 30 52 17 14 30 47 30 73 0 67 79 307 102 307 10 0 18 14 18 31 0 16 13 35 29 41 22 9 24 23 10 60 -24 65 3 61 47 -7 l36 -55 -10 70 c-5 39 -15 97 -21 130 -7 33 2 20 20 -30 35 -95 69 -146 69 -103 0 14 9 20 20 13 11 -7 20 -2 20 10 0 12 9 17 20 10 11 -7 20 -3 20 9 0 11 13 21 30 21 16 0 28 11 25 25 -3 13 15 27 40 31 25 4 45 19 45 33 0 120 252 41 320 -100 60 -124 34 -433 -44 -518 -39 -42 -46 -71 -17 -71 10 0 24 18 31 41 14 43 70 21 70 -28 0 -13 14 -49 31 -82 17 -32 28 -72 25 -90 -7 -40 75 -181 105 -181 12 0 16 9 9 20 -7 11 -3 20 9 20 11 0 21 22 21 49 0 39 9 47 42 41 31 -6 36 -2 21 16 -23 28 50 33 93 6 39 -24 23 -128 -18 -117 -62 16 -58 -30 11 -131 139 -202 146 -506 22 -914 -7 -22 11 10 41 70 29 61 63 128 75 150 26 48 37 575 12 590 -9 6 -22 38 -27 71 -39 216 -57 279 -101 358 -47 85 -48 89 -11 101 39 13 75 129 52 167 -7 11 -2 23 11 27 32 11 47 220 21 293 -17 48 -15 62 9 71 16 7 25 20 18 30 -6 10 3 23 20 30 23 8 28 25 17 57 -13 41 -11 43 24 15 35 -28 36 -27 11 4 -29 37 -16 76 25 76 17 0 23 17 17 48 -5 26 0 65 12 86 16 30 12 43 -17 61 -47 30 -70 -18 -39 -81 21 -43 20 -43 -10 -5 -17 21 -26 55 -20 74 9 30 -38 157 -59 157 -3 0 -2 -22 3 -50 7 -37 1 -50 -24 -50 -18 0 -28 9 -21 20 7 11 7 20 0 20 -23 0 -65 -52 -76 -91 -6 -24 -10 -13 -12 28 -1 51 -9 65 -32 56 -16 -7 -30 -3 -30 8 0 10 20 20 45 21 34 2 36 5 10 12 -38 10 -47 56 -15 76 11 7 20 5 20 -4 0 -9 20 -29 45 -44 25 -15 39 -20 31 -12 -8 8 8 33 35 54 54 42 65 96 21 96 -18 0 -31 29 -35 80 -9 85 24 102 37 19 4 -26 17 -57 30 -69 15 -14 17 -12 6 8 -13 22 -8 25 19 15 26 -10 32 -6 24 16 -6 16 -3 35 7 41 12 7 10 27 -4 50 -13 20 -31 33 -40 28 -9 -6 -16 34 -16 88 0 73 -10 107 -41 135 -57 51 -69 23 -69 -157 0 -118 -5 -146 -25 -130 -13 11 -20 29 -14 38 6 10 1 18 -11 18 -22 0 -20 -61 2 -80 26 -21 -53 -78 -83 -59 -24 15 -23 18 6 19 32 0 31 4 -5 40 -47 47 -76 54 -40 10 14 -17 20 -37 13 -44 -8 -7 -27 4 -43 25 -25 33 -28 33 -18 4 14 -41 -5 -43 -66 -9 -30 17 -39 33 -27 52 13 21 20 20 37 -10 28 -49 43 79 39 327 -3 164 -6 181 -34 158 -17 -15 -44 -33 -61 -41 -16 -8 -5 5 26 29 60 47 131 177 119 215 -13 39 -45 27 -45 -16 0 -22 -10 -40 -21 -40 -12 0 -16 9 -9 20 7 11 3 20 -9 20 -11 0 -21 -14 -21 -31 0 -17 -7 -27 -16 -22 -8 6 -13 96 -11 202 2 107 -4 187 -14 180 -10 -6 -38 21 -63 60 -41 63 -76 91 -76 60 0 -24 48 -100 76 -121 18 -13 24 -32 14 -48 -10 -16 -8 -21 5 -13 11 7 26 0 32 -16 6 -17 3 -35 -8 -42 -10 -6 -19 -2 -19 10 0 11 -13 21 -30 21 -17 0 -30 -18 -30 -40 0 -22 11 -38 25 -35 17 3 23 -17 19 -65 -4 -53 -1 -63 15 -40 17 25 20 23 20 -10 0 -42 -27 -98 -43 -87 -23 17 -67 -60 -73 -128 -9 -103 27 -94 59 15 25 85 61 114 88 71 6 -11 -7 -56 -30 -101 -24 -47 -37 -99 -30 -121 14 -43 50 -53 50 -14 0 14 17 36 38 49 36 23 38 20 21 -38 -10 -34 -12 -71 -5 -82 7 -11 3 -14 -9 -7 -21 13 -42 -50 -59 -177 -15 -111 -8 -168 27 -222 33 -50 33 -53 -1 -72 -25 -14 -32 -34 -23 -70 8 -32 5 -45 -8 -36 -33 20 -25 -58 10 -101 30 -38 31 -38 18 7 -7 28 1 66 21 97 28 43 29 55 7 69 -21 14 -20 17 6 18 43 0 63 53 26 68 -30 11 -41 72 -13 72 9 0 27 -11 40 -24 19 -19 24 -18 24 4 0 23 7 22 33 -5 25 -25 28 -40 11 -60 -12 -15 -18 -46 -12 -68 6 -23 -1 -54 -15 -69 -31 -32 -41 -98 -15 -98 10 0 18 17 18 39 0 21 9 44 20 51 11 7 20 -8 20 -34 1 -53 26 -101 52 -97 10 1 19 -23 21 -53 3 -45 1 -47 -6 -9 -6 27 -21 42 -36 36 -14 -5 -36 0 -49 13 -16 16 -22 11 -22 -22 0 -24 8 -44 17 -44 10 0 39 -49 65 -110 26 -60 54 -110 63 -110 8 0 15 -14 15 -31 0 -17 -9 -26 -20 -19 -11 7 -20 -6 -20 -28 0 -22 14 -48 32 -58 28 -16 29 -19 2 -30 -18 -7 -45 8 -67 37 -44 59 -77 65 -47 9 21 -40 12 -80 -18 -80 -8 0 -12 45 -9 100 4 59 -2 100 -14 100 -46 0 -124 105 -134 181 -6 44 -17 79 -26 79 -15 0 -64 178 -58 212 10 49 -3 109 -21 98 -32 -20 -23 -99 28 -239 36 -102 41 -131 20 -131 -16 0 -28 -9 -28 -21 0 -11 -21 0 -48 25 -26 25 -47 51 -47 56 0 45 -9 60 -36 60 -17 0 -26 9 -20 19 7 11 -11 34 -38 52 -51 34 -68 96 -32 118 10 7 27 -4 38 -22 13 -24 16 -6 8 61 -10 94 -10 96 33 73 48 -26 82 -13 82 31 0 17 -9 25 -20 18 -11 -7 -20 -4 -20 7 0 11 11 23 25 28 20 7 20 15 0 39 -13 16 -18 37 -10 46 8 9 4 10 -10 2 -38 -22 -30 10 9 39 29 20 30 30 9 55 -26 32 26 152 53 124 6 -6 1 -21 -12 -34 -30 -30 -31 -63 -2 -45 15 10 18 0 9 -28 -8 -24 -5 -43 5 -43 19 0 48 95 52 170 1 22 -9 38 -23 35 -14 -3 -25 6 -25 20 -1 17 -7 15 -20 -5 -10 -16 -30 -30 -44 -30 -63 0 -79 -124 -44 -338 11 -68 9 -76 -20 -66 -23 9 -39 -1 -52 -36 -11 -28 -24 -50 -31 -50 -6 0 -6 8 0 18 6 10 -1 22 -16 28 -21 8 -26 -10 -23 -73 5 -102 25 -153 62 -153 15 0 28 -17 28 -38 0 -20 14 -49 31 -63 24 -20 25 -29 6 -41 -31 -19 -177 59 -177 95 0 13 -10 31 -23 39 -17 10 -19 -9 -9 -72 12 -77 10 -83 -18 -60 -26 22 -29 21 -18 -7 16 -42 -1 -42 -52 1 -27 24 -40 59 -40 113 0 64 -5 74 -27 55 -21 -17 -34 -15 -53 8 -14 16 -34 30 -46 30 -12 0 -2 -18 22 -41 25 -23 53 -36 64 -29 11 7 20 -8 20 -34 -1 -37 -4 -40 -20 -16 -32 49 -25 -31 7 -96 55 -108 64 -158 22 -124 -20 17 -30 19 -23 6 8 -13 5 -29 -6 -36 -11 -7 -15 -22 -8 -34 8 -12 2 -17 -14 -12 -25 8 -38 47 -69 205 -12 67 -23 83 -41 65 -7 -6 -3 -40 9 -75 22 -62 6 -129 -31 -129 -9 0 -15 -25 -13 -55 2 -30 -5 -50 -15 -44 -28 18 -21 125 10 143 20 12 22 29 9 66 -16 40 -23 44 -38 20 -12 -20 -18 -22 -19 -5 0 14 -18 25 -40 25 -22 0 -40 -9 -40 -19 0 -11 14 -15 30 -8 19 7 30 -1 30 -21 0 -18 8 -32 18 -32 23 0 3 -161 -24 -196 -16 -20 -27 -18 -56 7 -33 31 -89 24 -69 -9 24 -40 27 -122 3 -122 -17 0 -26 34 -27 100 -2 54 4 98 11 97 36 -5 40 7 21 63 -12 33 -30 60 -40 60 -11 0 -13 -11 -4 -25 10 -17 4 -16 -19 2 -40 33 -49 -36 -15 -123 13 -36 10 -61 -12 -93 -17 -23 -26 -56 -19 -72 7 -18 -2 -29 -22 -29 -18 0 -27 6 -20 13 8 7 6 23 -3 35 -37 48 -39 110 -4 122 37 11 35 130 -2 130 -11 0 -14 -9 -7 -20 7 -11 4 -20 -7 -20 -10 0 -28 27 -40 60 -13 36 -13 60 -2 60 10 0 19 14 19 31 0 17 -9 26 -20 19 -29 -18 -25 37 5 67 20 20 18 23 -8 13 -23 -9 -38 0 -47 29 -7 22 -28 40 -46 39 -21 -1 -24 -5 -9 -11 19 -8 17 -18 -6 -41 -18 -18 -44 -24 -65 -16 -18 8 -59 17 -89 20 -31 3 -69 17 -86 31 -16 13 -36 19 -43 12 -7 -7 -31 3 -53 22 -38 33 -39 33 -26 -2 10 -28 6 -35 -16 -26 -17 6 -32 -3 -37 -23 -6 -28 -11 -25 -27 13 -17 42 -22 44 -46 14 -22 -26 -22 -32 -2 -27 14 3 30 -5 35 -19 6 -15 -9 -26 -37 -26 -26 -1 -66 -6 -90 -10 -29 -6 -53 8 -75 41 -18 28 -44 50 -57 49 -15 0 -11 -11 10 -27 37 -28 47 -72 17 -72 -10 0 -23 14 -30 31 -9 24 -20 26 -52 9 -23 -12 -36 -31 -29 -41 6 -11 20 -15 30 -8 10 6 35 2 54 -9 29 -17 23 -21 -35 -24 -85 -3 -186 -13 -280 -27 -49 -7 -61 -4 -40 9 22 15 12 19 -41 20 -38 0 -90 14 -113 30 -28 19 -48 23 -56 10 -7 -11 -32 -19 -56 -18 -41 2 -41 3 6 18 l50 16 -45 15 c-25 7 -45 20 -45 29 0 8 -24 12 -52 9 -29 -3 -65 -1 -80 5 -33 12 -38 66 -7 66 12 0 16 9 8 21 -8 13 -26 5 -48 -20 -20 -23 -53 -40 -73 -40 -34 1 -33 4 5 19 54 22 74 53 45 71 -12 8 -30 2 -40 -13 -10 -16 -17 -19 -17 -8 0 38 29 62 74 62 25 0 45 -7 45 -16 0 -33 102 -82 124 -60 12 12 48 17 82 10 59 -12 60 -12 22 27 -32 32 -42 34 -66 11 -31 -30 -52 -16 -91 59 -13 26 -34 45 -45 43 -33 -7 -131 107 -136 158 -9 83 -10 86 -30 56 -15 -23 -20 -16 -20 30 -1 58 -2 58 -31 20 -19 -24 -22 -42 -10 -46 12 -4 20 -22 19 -41 -1 -20 -5 -24 -11 -8 -6 14 -29 25 -53 25 -31 0 -36 6 -20 22 13 13 18 36 12 51 -7 17 0 26 17 23 20 -5 28 23 30 109 3 109 27 172 92 237 37 37 95 157 95 194 0 17 6 25 12 18 23 -22 104 97 119 172 7 41 23 80 34 87 14 9 17 -10 9 -55 -12 -63 -11 -65 12 -22 44 78 53 25 12 -71 -21 -50 -34 -105 -29 -123 6 -17 2 -59 -9 -92 -19 -58 -20 -59 -13 -5 4 30 2 55 -5 55 -119 -3 -4 -300 116 -300 12 0 22 -9 22 -19 0 -11 -16 -15 -35 -8 -30 9 -30 7 -5 -11 17 -12 36 -22 43 -22 23 0 30 112 8 135 -104 109 -109 118 -100 207 8 88 86 353 88 300 1 -16 6 -23 13 -17 7 7 5 24 -4 39 -37 59 -25 100 52 174 44 42 80 71 80 64 0 -6 13 7 28 29 55 78 329 223 507 269 47 12 85 30 85 41 0 24 -20 23 -65 -3z m-780 -1023 c39 -49 52 -146 16 -116 -18 15 -28 31 -22 36 5 5 -4 23 -20 39 -32 32 -38 66 -11 66 9 0 26 -11 37 -25z m-581 -695 c-3 -43 -24 -52 -45 -19 -17 28 6 84 30 70 10 -7 17 -30 15 -51z m106 -135 c0 25 13 33 45 28 30 -5 43 -19 39 -42 -4 -21 2 -30 15 -22 11 7 21 3 21 -10 0 -15 18 -19 50 -11 29 7 50 4 50 -8 0 -11 17 -20 37 -20 20 0 65 -27 100 -60 54 -52 57 -60 23 -60 -22 0 -40 10 -40 23 0 13 -6 18 -14 10 -7 -7 7 -41 32 -74 24 -34 42 -70 38 -81 -8 -25 -96 48 -96 79 0 13 -9 23 -20 23 -12 0 -31 23 -44 50 -31 68 -139 124 -164 84 -23 -35 -107 -1 -123 51 -7 19 -20 35 -30 35 -10 0 -12 15 -5 32 10 28 18 26 49 -15 30 -39 36 -41 37 -12z m3540 -146 c13 -31 19 -69 14 -83 -7 -17 -11 -14 -12 8 -1 22 -13 31 -32 23 -19 -7 -30 1 -30 21 0 18 -9 32 -20 32 -11 0 -20 -22 -20 -50 0 -27 -10 -50 -22 -50 -14 0 -17 17 -9 45 8 25 19 64 24 88 15 59 77 39 107 -34z m-3438 -84 c2 -14 2 -32 0 -40 -1 -8 22 -15 51 -15 52 0 53 0 13 -35 -22 -19 -36 -48 -32 -65 4 -16 -5 -7 -20 20 -40 70 -59 160 -34 160 11 0 21 -11 22 -25z m3149 -434 c-6 -10 6 -24 27 -30 21 -7 43 -26 50 -42 14 -37 2 -37 -60 4 l-50 33 24 -53 c14 -29 31 -53 39 -53 8 0 20 -15 27 -33 11 -27 8 -28 -17 -8 -44 37 -77 5 -64 -61 7 -32 3 -58 -7 -58 -11 0 -21 11 -22 25 -1 28 -7 60 -27 153 -9 38 -6 62 7 62 11 0 16 13 10 28 -6 17 4 32 26 38 20 5 39 10 42 12 4 1 1 -6 -5 -17z m175 -31 c-7 -34 -60 -34 -73 0 -10 25 -2 31 32 26 25 -3 43 -15 41 -26z m-1344 -159 c27 -29 22 -90 -12 -124 -27 -27 -30 -26 -30 2 0 17 8 31 19 31 10 0 17 18 16 40 -2 22 -11 40 -19 40 -9 0 -15 34 -13 75 3 68 4 69 12 15 4 -33 16 -69 27 -79z"/> <path d="M3975 5247 c36 -15 31 -47 -7 -47 -27 0 -28 -5 -8 -30 29 -35 27 -36 -157 -70 -71 -13 -156 -35 -190 -50 -86 -36 -317 -113 -348 -115 -23 -2 -33 -29 -30 -90 0 -14 -7 -25 -17 -25 -29 0 -20 -129 11 -171 28 -36 30 -33 30 46 1 47 11 85 22 85 12 0 16 -9 9 -20 -13 -21 48 -140 72 -140 7 0 9 40 3 88 -14 122 28 216 81 185 30 -18 41 -17 48 2 5 14 22 25 37 25 15 0 47 27 71 59 46 62 98 94 98 60 0 -10 -16 -20 -35 -20 -32 -2 -32 -3 2 -16 34 -14 34 -17 4 -42 -45 -37 -38 -207 10 -237 28 -17 41 -7 78 68 24 49 52 84 61 78 9 -5 12 8 6 30 -12 45 -46 75 -46 40 0 -12 -22 -46 -50 -76 -73 -78 -61 -30 19 84 39 54 64 107 57 118 -7 11 -3 14 9 7 12 -7 46 -4 76 7 38 15 62 14 81 -1 15 -13 38 -18 52 -12 15 6 10 11 -12 11 -21 1 -34 7 -27 13 6 7 50 1 98 -13 48 -14 96 -26 107 -28 54 -10 57 -14 20 -28 -25 -10 -56 -6 -81 10 -50 33 -244 8 -271 -34 -27 -43 -21 -63 15 -50 25 10 28 7 11 -13 -26 -31 -28 -240 -3 -224 10 6 23 42 31 82 9 48 18 62 30 44 12 -19 21 -13 34 23 15 41 12 53 -19 64 -66 26 -40 34 66 22 76 -9 99 -6 89 11 -23 38 38 27 93 -17 84 -66 234 -41 176 28 -33 40 -61 41 -61 3 0 -44 -51 -17 -54 28 -2 25 6 35 24 28 53 -20 71 13 37 66 -22 33 -46 47 -70 40 -21 -5 -33 -2 -27 7 10 17 -46 57 -134 95 -45 19 -52 18 -43 -5 6 -15 2 -43 -8 -61 -17 -30 -20 -30 -31 -1 -7 18 -4 32 6 32 10 0 14 14 7 30 -6 17 -26 29 -44 28 -21 -1 -24 -5 -8 -11z"/> <path d="M3224 5189 c-26 -29 -114 -42 -97 -14 5 8 -15 14 -44 14 -70 -2 -203 -69 -203 -103 0 -14 -9 -26 -21 -26 -11 0 -45 -22 -75 -50 -29 -27 -65 -50 -80 -50 -14 0 -43 -38 -65 -85 -24 -54 -38 -70 -39 -45 0 33 -4 35 -20 10 -12 -18 -20 -20 -20 -6 0 13 10 30 23 38 15 9 11 20 -12 32 -27 16 -29 25 -8 53 13 18 -27 -18 -89 -80 l-114 -114 0 70 c0 41 -8 64 -20 57 -11 -7 -20 -39 -20 -71 0 -33 -9 -59 -20 -59 -11 0 -20 -19 -20 -41 0 -27 8 -37 25 -27 14 8 3 -9 -23 -38 -82 -91 -72 -246 20 -295 37 -20 40 -18 29 19 -8 23 -5 42 5 42 11 0 17 52 13 115 -7 129 5 191 32 174 11 -6 28 11 38 39 26 68 101 109 101 54 0 -21 -11 -42 -25 -47 -19 -6 -17 -16 5 -41 65 -70 77 -90 65 -102 -6 -7 7 -32 29 -57 53 -58 86 -123 86 -169 0 -20 14 -62 30 -93 34 -66 37 -80 13 -65 -9 6 -16 -4 -16 -20 0 -19 13 -28 34 -22 28 7 36 -8 44 -80 6 -49 21 -100 35 -113 19 -18 22 -8 12 47 l-12 70 36 -73 c40 -82 86 -142 98 -129 15 14 -39 172 -58 172 -10 0 -13 9 -6 20 20 33 42 23 67 -31 13 -28 32 -46 43 -39 11 7 26 -4 34 -24 15 -40 66 -97 66 -74 0 8 -23 54 -51 101 -39 67 -44 87 -21 87 16 0 32 -13 36 -29 4 -21 15 -24 36 -11 26 16 26 22 -2 44 -18 14 -66 82 -107 151 -49 83 -87 125 -112 125 -31 0 -36 10 -26 58 6 33 2 63 -12 71 -16 10 -19 -1 -10 -37 10 -40 6 -52 -19 -52 -18 0 -32 -9 -32 -21 0 -14 -13 -14 -40 1 -22 12 -40 33 -40 48 0 14 -18 47 -40 72 -44 50 -51 80 -20 80 11 0 20 9 20 19 0 11 -13 15 -30 8 -37 -14 -63 47 -37 89 10 17 35 33 55 36 19 3 53 21 74 40 36 33 38 32 39 -4 2 -47 29 6 47 94 12 53 162 238 194 238 25 0 23 -75 -4 -91 -12 -7 -16 -34 -10 -60 7 -26 4 -52 -6 -58 -9 -6 -16 4 -15 22 2 18 -6 36 -18 40 -25 9 -26 -111 -1 -151 14 -22 22 -20 39 10 22 39 25 49 30 116 2 21 9 33 16 25 8 -7 28 -1 45 14 85 71 182 118 169 80 -13 -35 -11 -35 30 1 24 21 49 32 56 25 8 -7 5 -13 -5 -13 -11 0 -21 -18 -23 -40 -3 -48 1 -48 73 -11 32 16 62 25 67 19 6 -5 76 13 156 41 80 28 185 51 234 51 53 0 83 8 75 20 -15 25 -263 27 -279 2 -6 -9 -35 -23 -66 -31 -155 -37 -203 -44 -193 -28 6 9 26 17 44 17 19 0 48 10 64 22 22 16 6 19 -64 12 -67 -6 -97 -1 -104 19 -14 35 -55 33 -88 -4z m-362 -979 c-3 -11 1 -13 9 -5 9 8 27 5 42 -8 18 -15 27 -15 27 -1 0 12 -8 27 -18 33 -51 31 -102 151 -62 145 49 -8 66 -24 70 -69 10 -86 37 -145 67 -146 28 0 28 -3 -3 -21 -28 -17 -46 -14 -73 11 -29 26 -39 28 -47 7 -6 -17 -14 -13 -23 14 -8 22 -27 70 -42 106 -44 100 -33 124 16 34 24 -44 41 -89 37 -100z"/> <path d="M4367 5175 c-8 -12 -4 -15 10 -7 13 8 23 4 23 -8 0 -12 8 -17 19 -11 10 6 24 2 31 -9 7 -12 46 -43 87 -69 40 -26 129 -102 198 -169 69 -67 136 -122 150 -121 14 0 10 9 -9 20 -19 11 -67 69 -107 130 -40 60 -85 109 -100 109 -15 0 -34 11 -43 25 -43 68 -235 150 -259 110z"/> <path d="M2420 4995 c-1 -36 -4 -39 -20 -15 -15 23 -19 18 -20 -24 0 -70 32 -89 48 -28 6 27 17 63 24 80 7 18 2 32 -10 32 -12 0 -22 -20 -22 -45z"/> <path d="M1710 5000 c-7 -11 -1 -21 14 -21 14 -1 6 -11 -19 -23 -25 -12 -45 -39 -45 -60 0 -34 7 -33 70 15 78 60 85 79 38 97 -41 16 -44 15 -58 -8z"/> <path d="M3065 4955 c-41 -51 -52 -122 -17 -109 17 7 32 4 32 -7 0 -10 -9 -19 -19 -19 -11 0 -18 -26 -15 -58 3 -42 11 -53 27 -39 15 12 27 10 33 -7 6 -14 13 -1 15 29 3 30 6 66 7 80 1 14 13 32 27 41 14 9 25 34 25 55 0 38 -2 39 -53 5 -51 -33 -52 -33 -38 10 15 49 6 57 -24 19z"/> <path d="M1223 4835 c-13 -38 -14 -127 -5 -300 1 -19 16 -35 32 -35 34 0 40 31 11 50 -46 28 23 110 92 110 74 0 106 -129 37 -151 -16 -5 -46 -15 -65 -22 -19 -7 -43 -11 -53 -9 -10 2 -8 -9 5 -24 13 -16 19 -42 12 -58 -21 -56 42 -82 77 -31 17 25 68 86 114 135 96 104 155 225 105 218 -8 -2 -24 0 -35 3 -11 4 -60 7 -110 8 -66 1 -88 8 -84 29 16 74 -109 146 -133 77z"/> <path d="M4469 4861 c7 -10 43 -13 81 -7 43 7 82 1 100 -14 34 -28 62 -15 41 19 -7 11 -63 21 -123 21 -63 0 -105 -8 -99 -19z"/> <path d="M2185 4837 c-14 -14 -25 -46 -25 -72 0 -27 -9 -42 -20 -35 -11 7 -20 3 -20 -9 0 -40 74 -21 94 24 27 59 5 126 -29 92z"/> <path d="M2843 4842 c-12 -7 -16 -34 -9 -59 8 -34 16 -39 28 -20 12 19 21 13 36 -23 19 -49 20 -48 21 15 0 36 3 71 6 78 7 19 -55 25 -82 9z"/> <path d="M4293 4827 c-22 -23 -15 -83 12 -94 20 -8 19 -14 -1 -28 -14 -10 -39 -72 -54 -137 -36 -151 -37 -146 9 -143 21 2 34 9 30 17 -5 7 9 36 31 64 22 28 40 62 40 75 0 14 6 20 12 13 7 -6 3 -39 -8 -73 -12 -33 -14 -65 -5 -70 24 -15 41 94 27 179 -8 52 -3 80 16 94 22 15 22 21 3 29 -14 6 -25 22 -25 37 0 14 -14 31 -32 38 -39 15 -38 15 -55 -1z"/> <path d="M4520 4790 c0 -24 148 -73 250 -84 131 -13 191 -41 146 -69 -16 -10 -18 -17 -3 -17 34 0 73 56 61 88 -8 19 -64 32 -176 42 -91 8 -190 22 -221 31 -32 9 -57 13 -57 9z"/> <path d="M942 4709 l-48 -51 43 -11 c24 -7 43 -20 43 -30 0 -32 74 50 89 98 20 65 -64 60 -127 -6z"/> <path d="M4057 4700 c-49 -66 -89 -154 -82 -183 2 -7 -9 -24 -26 -38 -24 -20 -29 -17 -29 19 0 23 -9 42 -19 42 -29 0 -85 -117 -69 -144 9 -13 5 -17 -9 -8 -13 8 -23 5 -23 -6 0 -12 -15 -15 -35 -6 -74 30 -125 75 -125 110 0 20 -8 31 -18 25 -10 -6 -23 0 -29 14 -5 14 -11 15 -11 4 -3 -37 133 -181 201 -215 80 -38 96 -30 99 52 2 35 7 48 12 29 5 -19 18 -35 28 -35 11 0 10 -18 -3 -42 -13 -24 -14 -37 -3 -31 11 7 31 -1 44 -17 14 -17 40 -31 57 -32 28 -1 28 -3 3 -13 -16 -6 -37 -21 -45 -33 -8 -13 -15 -4 -15 21 0 61 -73 39 -111 -34 -34 -68 -23 -106 40 -135 42 -19 49 -16 60 31 17 65 71 146 71 105 0 -40 37 1 45 50 3 22 14 53 24 69 47 74 19 134 -44 94 -30 -18 -34 10 -5 39 13 13 12 41 -4 81 -20 54 -17 71 22 130 l45 67 -12 -80 c-9 -62 -7 -72 10 -45 12 20 19 69 15 110 l-6 75 -53 -70z m-61 -365 c-31 -62 -56 -38 -44 40 7 41 18 84 25 95 20 32 38 -96 19 -135z"/> <path d="M2880 4631 c0 -40 67 -164 112 -210 21 -20 -32 100 -66 153 -20 30 -25 48 -11 39 28 -17 30 -11 13 35 -19 49 -48 38 -48 -17z"/> <path d="M4700 4663 c0 -15 -18 -19 -50 -11 -46 11 -49 8 -33 -35 10 -26 28 -47 41 -47 13 0 31 -13 41 -28 15 -25 21 -24 44 0 40 43 40 70 -4 109 -23 21 -39 26 -39 12z"/> <path d="M2954 4619 c-5 -18 7 -54 27 -80 l35 -47 -10 52 c-5 28 0 57 12 65 34 21 26 42 -17 42 -21 0 -42 -14 -47 -32z"/> <path d="M3597 4599 c26 -46 35 -50 58 -27 35 35 19 61 -42 72 -46 9 -47 8 -16 -45z"/> <path d="M3074 4580 c-49 -58 -43 -166 13 -233 26 -32 63 -87 81 -123 19 -36 41 -61 51 -55 9 6 26 -15 37 -47 26 -74 94 -115 135 -81 38 31 37 52 -4 67 -27 11 -29 8 -7 -18 15 -18 17 -30 4 -30 -26 0 -127 100 -200 197 -29 40 -65 80 -79 89 -14 9 -25 31 -25 49 0 28 5 27 29 -6 28 -37 30 -36 30 21 l1 60 40 -60 c22 -33 40 -51 40 -40 1 11 11 4 22 -17 12 -20 16 -41 10 -48 -7 -6 -12 -1 -12 12 0 13 -9 23 -20 23 -41 0 -18 -63 49 -135 81 -89 126 -49 63 57 -19 32 -29 67 -22 78 7 11 -1 20 -17 20 -35 0 -88 78 -101 150 -19 105 -64 132 -118 70z"/> <path d="M3420 4551 c0 -27 -10 -55 -23 -63 -15 -9 -18 -5 -7 12 12 20 7 23 -18 13 -20 -7 -44 -13 -55 -13 -10 0 -5 -20 12 -44 17 -25 31 -60 31 -78 0 -18 14 -45 32 -59 39 -33 73 9 57 71 -10 37 -9 38 12 3 13 -20 18 -54 13 -75 -8 -30 0 -38 42 -38 38 0 46 -6 30 -22 -13 -13 -18 -38 -12 -55 27 -84 129 -283 144 -283 10 0 24 -32 31 -72 8 -43 23 -68 37 -62 13 5 40 -22 59 -59 19 -37 25 -67 15 -67 -31 0 -24 -43 13 -83 18 -21 25 -37 14 -37 -10 0 -20 -26 -23 -58 -4 -56 -2 -57 46 -35 27 13 50 32 50 43 0 11 9 7 20 -10 16 -25 19 -23 20 11 0 22 -17 53 -39 68 -24 18 -43 63 -51 124 -8 54 -22 97 -32 97 -10 0 -18 32 -18 72 0 54 -7 70 -28 61 -16 -6 -34 3 -40 19 -6 17 3 35 21 42 30 11 29 15 -2 38 -19 14 -30 34 -23 44 6 11 -2 31 -18 44 -16 13 -24 35 -18 47 6 13 -2 7 -19 -14 -37 -45 -61 -11 -81 114 -17 107 -30 121 -74 81 -36 -33 -38 -32 -38 9 0 24 8 41 18 38 10 -3 18 3 18 13 0 10 15 26 32 36 29 16 29 24 1 77 -38 75 -49 75 -40 -1 10 -71 -14 -92 -52 -46 -18 23 -19 29 -2 19 30 -18 32 6 5 76 -24 65 -60 66 -60 2z"/> <path d="M2462 4495 c55 -109 57 -111 49 -42 -3 31 -7 73 -9 92 -1 21 -18 35 -42 35 -41 0 -41 -1 2 -85z"/> <path d="M5112 4546 c12 -9 20 -33 17 -53 -4 -21 2 -57 11 -80 15 -36 18 -30 19 32 0 41 1 82 2 90 1 8 -15 18 -35 21 -22 4 -28 0 -14 -10z"/> <path d="M1550 4440 c-63 -99 -66 -150 -4 -58 48 72 79 138 64 138 -5 0 -32 -36 -60 -80z"/> <path d="M4803 4455 c-3 -36 -7 -110 -9 -165 -4 -108 -37 -157 -55 -84 -7 24 -11 -49 -10 -163 1 -138 7 -196 20 -176 17 26 22 26 44 -4 20 -27 29 -28 50 -7 22 21 22 29 1 42 -21 12 -19 21 5 41 17 14 31 35 31 46 0 11 16 33 35 47 19 15 26 27 14 27 -12 1 -24 62 -28 146 -3 80 -7 165 -9 190 -2 49 -32 63 -32 15 0 -16 -7 -30 -15 -30 -8 0 -15 23 -15 50 0 28 7 50 16 50 9 0 11 9 4 20 -24 38 -43 20 -47 -45z m-2 -390 l-9 -95 -12 80 c-12 82 -8 110 16 110 8 0 10 -43 5 -95z"/> <path d="M2028 4392 c5 -82 15 -106 64 -145 75 -61 97 -60 56 3 -18 28 -45 50 -60 50 -15 0 -22 12 -16 27 6 15 -3 58 -19 95 l-30 68 5 -98z"/> <path d="M4994 4435 c23 -25 52 -66 65 -92 13 -25 29 -41 36 -35 16 16 -91 172 -119 172 -13 0 -5 -20 18 -45z"/> <path d="M2131 4421 c-8 -12 3 -22 23 -23 20 0 26 -5 13 -10 -15 -7 -17 -33 -7 -77 19 -87 38 -115 64 -98 12 7 17 5 10 -6 -6 -11 15 -29 47 -41 72 -27 74 -14 10 73 -27 37 -45 75 -39 84 5 9 -3 11 -19 5 -21 -8 -32 5 -37 44 -6 58 -43 85 -65 49z"/> <path d="M2500 4350 c0 -18 -9 -27 -22 -19 -32 20 -1 -75 33 -102 15 -12 19 -32 10 -47 -12 -19 -19 -17 -29 9 -19 51 -36 22 -21 -37 8 -32 23 -47 40 -41 17 7 32 -8 40 -41 8 -29 28 -52 46 -53 18 0 6 -13 -27 -27 -33 -15 -68 -22 -79 -16 -10 6 -1 17 19 24 34 12 33 15 -10 26 -65 17 -72 5 -32 -55 18 -28 27 -51 20 -51 -7 0 -2 -13 12 -30 13 -16 33 -25 42 -19 10 6 18 1 18 -12 0 -13 -13 -18 -30 -12 -16 7 -30 3 -30 -8 0 -10 9 -19 20 -19 11 0 39 -19 62 -42 l42 -42 -14 47 c-7 26 -31 71 -52 101 -46 66 -48 84 -7 68 18 -6 26 -3 19 8 -7 11 -2 20 10 20 14 0 18 -16 10 -40 -7 -23 -4 -40 9 -40 11 0 21 -13 21 -30 0 -16 10 -30 22 -30 12 0 17 13 11 30 -9 22 2 27 48 22 32 -4 59 1 59 11 0 9 -21 17 -48 17 -35 0 -50 13 -57 50 -12 64 16 85 34 25 9 -28 18 -36 24 -19 6 14 4 41 -5 60 -8 19 -17 54 -20 78 -8 68 -48 130 -76 119 -18 -6 -23 7 -17 44 6 42 4 47 -13 23 -21 -29 -26 -22 -30 38 -3 41 -52 52 -52 12z"/> <path d="M4155 4291 c-55 -69 -78 -211 -35 -211 11 0 20 11 20 23 0 13 6 18 13 11 7 -7 1 -27 -13 -44 -20 -25 -20 -30 5 -30 47 0 89 59 57 79 -20 12 -21 19 -2 31 14 8 32 3 42 -12 21 -34 21 -34 29 97 3 58 -2 105 -13 105 -10 0 -19 -11 -19 -25 -1 -14 -8 -9 -16 10 -11 29 -21 25 -68 -34z"/> <path d="M1203 4283 c-19 -25 -27 -27 -36 -7 -8 19 -18 20 -39 3 -20 -17 -22 -33 -7 -62 12 -21 16 -46 9 -56 -11 -19 50 -61 89 -61 11 0 21 16 21 36 0 20 11 47 24 60 13 13 16 24 7 24 -10 0 -1 18 19 40 20 22 28 41 18 42 -10 0 -32 4 -50 7 -17 4 -42 -8 -55 -26z"/> <path d="M2329 4263 c16 -32 24 -64 17 -70 -7 -7 -1 -13 14 -13 15 0 21 -6 13 -13 -7 -8 0 -34 16 -58 28 -43 23 -69 -12 -69 -10 0 -17 12 -17 28 0 15 -24 43 -52 62 -29 19 -46 23 -38 10 11 -18 2 -21 -32 -11 -46 13 -47 12 -9 -18 45 -36 80 -41 59 -8 -9 15 -5 18 9 9 13 -8 19 -22 14 -31 -6 -8 8 -32 29 -51 21 -19 35 -43 29 -51 -11 -18 90 -119 119 -119 10 0 5 16 -11 35 -77 92 -69 245 9 167 12 -12 28 -22 36 -22 8 0 -19 34 -60 76 -41 41 -88 104 -103 140 -16 35 -36 64 -44 64 -9 0 -3 -26 14 -57z"/> <path d="M3780 4250 c35 -37 51 -44 63 -25 10 15 -1 34 -29 49 -71 40 -85 30 -34 -24z"/> <path d="M4371 4231 c-8 -45 -37 -90 -83 -127 -55 -46 -71 -74 -75 -136 -4 -62 -13 -79 -47 -84 -51 -8 -51 37 0 97 45 52 45 52 -36 43 -42 -5 -70 0 -70 13 0 12 -13 17 -30 10 -36 -13 -41 -49 -6 -42 33 7 96 -120 96 -192 0 -52 4 -55 33 -30 18 15 39 26 45 25 31 -5 85 118 58 135 -19 13 -15 20 19 29 25 7 45 21 45 32 0 10 8 13 18 7 9 -6 17 1 17 14 -3 63 7 95 27 95 12 0 17 -13 11 -30 -7 -16 -3 -30 8 -30 10 0 19 18 19 40 0 22 -7 40 -16 40 -8 0 -12 36 -7 80 9 98 -8 105 -26 11z"/> <path d="M3416 4205 c6 -30 24 -68 41 -85 28 -27 29 -26 17 7 -8 20 -14 58 -14 85 0 27 -12 48 -27 48 -19 0 -24 -17 -17 -55z"/> <path d="M3705 4220 c-25 -23 -45 -47 -45 -54 0 -7 16 3 37 21 48 44 61 42 82 -12 12 -28 19 -33 20 -14 3 74 -46 104 -94 59z"/> <path d="M4989 4158 c-7 -23 -7 -73 0 -111 20 -105 63 -55 54 62 -7 96 -32 119 -54 49z"/> <path d="M1682 4132 c-38 -45 -52 -232 -19 -233 15 0 51 -39 79 -87 32 -52 87 -105 140 -134 83 -46 106 -82 59 -91 -13 -2 -14 0 -2 6 12 6 -22 39 -74 74 -52 34 -117 97 -143 138 -27 41 -53 71 -58 65 -6 -5 14 -44 43 -86 59 -84 69 -122 23 -84 -16 14 -30 17 -30 7 0 -28 76 -67 107 -55 16 6 54 -15 86 -48 63 -66 214 -106 194 -52 -9 23 -2 25 39 10 27 -11 56 -13 63 -6 7 7 -16 24 -53 37 -60 22 -62 24 -16 26 l50 2 -55 34 c-30 19 -55 42 -55 51 0 40 -54 72 -80 48 -21 -19 -23 -17 -14 10 8 23 3 31 -15 23 -16 -5 -45 6 -65 26 -93 91 -106 85 -18 -7 63 -67 109 -99 130 -92 28 8 28 7 2 -12 -20 -14 -22 -21 -5 -22 14 0 25 -10 25 -22 0 -12 -28 2 -62 30 -33 29 -69 53 -80 55 -10 1 -27 3 -39 5 -27 3 -59 56 -46 76 5 9 2 16 -8 16 -29 0 -91 124 -97 198 -4 44 0 62 10 45 13 -22 18 -21 27 2 19 47 -14 82 -43 47z"/> <path d="M861 4091 c-42 -51 85 -228 131 -182 51 51 35 146 -31 180 -72 38 -71 38 -100 2z"/> <path d="M1816 4012 c5 -40 16 -77 26 -83 28 -17 21 79 -8 119 -23 32 -25 27 -18 -36z"/> <path d="M1860 4049 c0 -16 9 -29 21 -29 11 0 18 -24 15 -54 -5 -47 2 -55 51 -59 56 -5 56 -5 23 49 l-32 54 41 -47 c22 -26 36 -54 31 -63 -5 -8 6 -28 24 -43 29 -23 31 -23 17 3 -14 24 -12 25 10 5 15 -14 56 -25 91 -25 35 0 74 -13 88 -30 21 -25 18 -30 -16 -30 -23 0 -47 9 -54 20 -7 11 -32 20 -56 19 l-44 0 44 -37 c24 -20 38 -43 31 -51 -8 -7 2 -7 21 0 19 8 34 4 34 -9 0 -29 74 -28 92 1 8 13 6 18 -5 11 -10 -6 -32 -3 -48 7 -23 14 -19 18 16 19 30 0 52 -16 63 -46 25 -64 82 -111 82 -66 0 17 -9 32 -20 32 -11 0 -19 7 -18 15 6 38 -29 104 -59 112 -18 4 -6 10 27 11 55 3 57 5 20 25 -54 30 -170 141 -170 162 0 31 -59 78 -81 64 -12 -7 -16 -37 -9 -71 17 -75 -3 -73 -128 11 -70 47 -102 59 -102 40z"/> <path d="M3152 4046 c-19 -20 9 -46 49 -46 50 0 51 51 1 54 -21 2 -43 -2 -50 -8z"/> <path d="M5460 4032 c0 -26 51 -92 71 -92 28 0 2 82 -31 100 -32 17 -40 15 -40 -8z"/> <path d="M3383 4002 c-17 -11 -22 -33 -14 -60 16 -49 28 -51 79 -12 59 45 -2 112 -65 72z"/> <path d="M3260 3961 c0 -11 -11 -17 -25 -14 -14 4 -19 3 -12 -1 7 -4 8 -24 3 -44 -5 -22 4 -42 24 -49 18 -7 27 -22 20 -33 -7 -11 2 -26 19 -32 17 -7 31 -30 31 -51 0 -21 13 -43 28 -49 17 -6 23 -27 17 -52 -7 -27 -3 -39 13 -33 38 12 -20 217 -61 217 -10 0 -8 19 4 42 13 25 14 38 3 30 -28 -17 -87 8 -73 30 7 10 19 14 28 8 9 -5 22 4 28 20 7 18 0 30 -18 30 -16 0 -29 -9 -29 -19z"/> <path d="M3512 3955 c7 -20 3 -35 -10 -35 -12 0 -22 -16 -21 -35 0 -47 43 -100 72 -91 13 5 28 -8 33 -28 7 -28 10 -27 12 9 1 25 -7 45 -17 45 -11 0 -14 15 -7 33 9 23 5 29 -10 19 -15 -9 -20 -4 -13 13 5 14 -4 44 -21 66 -25 32 -28 33 -18 4z"/> <path d="M5073 3880 c6 -60 20 -119 30 -130 13 -13 14 -7 6 16 -10 24 -5 34 13 30 16 -4 28 14 30 43 3 46 1 46 -25 11 -26 -36 -27 -35 -28 11 -1 27 -10 67 -19 89 -12 26 -14 1 -7 -70z"/> <path d="M490 3867 c-73 -36 -111 -106 -83 -151 14 -22 7 -50 -24 -101 -44 -71 -58 -155 -25 -155 10 0 24 25 31 55 19 76 69 149 92 134 26 -16 24 -189 -2 -189 -12 0 -16 -8 -10 -19 18 -28 -67 -47 -98 -22 -21 17 -26 14 -24 -13 2 -23 -13 -38 -40 -42 -39 -6 -41 -12 -22 -74 23 -75 7 -102 -90 -145 -60 -26 -71 -55 -27 -71 41 -16 114 7 98 32 -8 13 0 16 20 8 18 -7 38 -3 45 7 6 11 20 14 30 8 11 -6 19 4 19 23 0 31 4 31 41 -3 40 -36 3 -83 -45 -56 -18 10 -32 -15 -44 -83 -15 -83 -112 -124 -112 -48 0 10 -10 18 -21 18 -12 0 -19 -16 -16 -35 3 -19 -1 -46 -10 -60 -8 -14 -7 -25 4 -25 10 0 24 14 31 31 19 50 52 13 44 -49 -10 -89 -72 -151 -72 -72 0 17 -9 30 -19 30 -32 0 -103 87 -93 113 6 15 -1 21 -19 14 -23 -9 -27 -51 -21 -214 9 -260 53 -544 73 -473 7 28 41 104 74 170 33 66 67 140 74 165 8 25 26 45 40 45 83 0 479 736 500 930 13 112 -14 183 -49 130 -17 -26 -23 -26 -38 -2 -12 19 -23 -13 -32 -101 -8 -78 -29 -149 -51 -178 l-38 -49 -1 61 c0 34 11 72 25 86 20 21 13 35 -35 74 l-60 48 37 68 c78 145 50 234 -57 180z m-62 -571 c12 -77 -19 -123 -49 -74 -16 25 -7 104 16 144 14 25 20 11 33 -70z"/> <path d="M2837 3842 c29 -32 56 -55 61 -51 15 15 -60 109 -86 109 -17 0 -8 -22 25 -58z"/> <path d="M3040 3881 c0 -63 76 -126 99 -82 17 31 16 41 -2 41 -13 0 -40 15 -60 33 -25 23 -37 25 -37 8z"/> <path d="M2962 3815 c71 -104 123 -155 156 -155 19 0 5 23 -39 61 -43 38 -60 65 -45 72 40 17 -16 87 -70 87 l-47 0 45 -65z"/> <path d="M5214 3853 c-6 -15 7 -65 28 -112 21 -47 39 -100 39 -118 1 -23 7 -20 19 11 11 26 10 70 -1 109 -10 35 -14 69 -9 74 12 12 -29 63 -50 63 -9 0 -20 -12 -26 -27z"/> <path d="M2656 3824 c-32 -13 -31 -20 9 -82 23 -38 46 -58 51 -45 22 67 51 1 73 -163 7 -59 31 -100 31 -55 0 21 6 21 31 0 22 -18 24 -30 8 -39 -15 -10 -12 -18 9 -27 18 -6 32 -4 32 5 0 39 -50 155 -78 182 -33 31 -42 82 -18 100 19 15 -63 140 -91 139 -13 -1 -38 -8 -57 -15z"/> <path d="M2402 3757 c11 -20 14 -37 7 -37 -6 0 2 -14 20 -32 17 -17 26 -39 20 -50 -6 -10 3 -18 20 -18 17 0 31 -7 31 -16 0 -8 27 -31 60 -51 34 -20 56 -43 50 -53 -8 -14 21 -14 70 0 6 1 -10 10 -34 20 -24 10 -54 38 -67 62 -21 38 -19 42 10 31 28 -10 26 -2 -9 47 -49 69 -72 80 -39 18 18 -34 12 -83 -7 -56 -3 4 -30 38 -60 75 -30 36 -50 73 -45 81 5 9 -3 15 -19 15 -21 0 -23 -9 -8 -36z"/> <path d="M3138 3755 c-13 -25 -16 -38 -8 -30 9 8 27 0 40 -18 17 -23 28 -26 38 -10 8 13 5 23 -7 23 -11 0 -21 10 -21 21 0 12 11 15 25 6 17 -10 16 -4 -2 19 -35 43 -37 43 -65 -11z"/> <path d="M2847 3750 c0 -14 12 -22 26 -16 15 6 27 0 27 -13 0 -25 48 -81 69 -81 19 0 -72 117 -99 127 -13 5 -23 -3 -23 -17z"/> <path d="M5595 3745 c-19 -4 -35 -16 -35 -26 0 -11 -22 -19 -49 -19 -65 0 -82 -33 -31 -60 56 -30 109 -10 138 53 27 59 25 63 -23 52z"/> <path d="M4275 3715 c-16 -46 9 -92 47 -89 46 3 51 34 6 34 -23 0 -29 12 -22 40 11 43 -17 57 -31 15z"/> <path d="M3600 3703 c0 -10 -24 -13 -53 -7 -39 7 -50 3 -42 -18 5 -15 18 -27 28 -25 9 2 29 -9 43 -25 14 -15 18 -28 8 -28 -9 0 -15 -20 -12 -45 2 -25 6 -54 7 -65 1 -11 10 -7 20 9 10 16 14 36 9 44 -5 8 1 20 12 27 13 8 14 25 0 50 -11 20 -14 51 -8 69 7 17 7 31 0 31 -7 0 -12 -8 -12 -17z"/> <path d="M5151 3654 c-7 -35 -16 -86 -19 -114 -3 -27 -18 -50 -34 -50 -46 0 -60 -67 -27 -131 64 -125 99 -68 90 144 -2 40 6 79 18 86 13 9 21 -15 21 -68 0 -46 10 -81 22 -81 15 0 17 24 6 75 -8 41 -15 99 -15 129 2 79 -46 86 -62 10z"/> <path d="M2253 3660 c68 -27 80 -64 16 -48 -39 10 -51 7 -41 -9 8 -13 27 -23 42 -23 15 0 45 -22 66 -49 21 -27 44 -44 51 -37 7 7 13 -3 13 -23 0 -28 -11 -33 -55 -22 -53 13 -54 12 -13 -17 23 -16 61 -25 85 -19 44 12 60 47 21 47 -12 0 -17 14 -11 30 7 18 -4 41 -28 55 -21 14 -39 41 -39 60 0 20 -23 45 -51 55 -64 25 -116 24 -56 0z"/> <path d="M3120 3607 c0 -23 108 -47 127 -28 36 36 52 23 45 -34 -4 -30 -2 -37 3 -15 10 40 10 40 27 0 14 -33 16 -29 13 20 -5 58 -8 60 -110 63 -58 1 -105 -1 -105 -6z"/> <path d="M2995 3573 c8 -13 15 -32 16 -43 0 -11 12 -18 25 -15 13 3 24 -4 24 -15 0 -11 17 -20 39 -20 21 0 44 -9 51 -20 7 -11 26 -20 43 -20 47 0 -22 62 -73 66 -23 1 -37 13 -33 25 5 12 -17 32 -49 44 -44 16 -55 16 -43 -2z"/> <path d="M4100 3547 c0 -15 -13 -27 -30 -27 -16 0 -30 -8 -30 -18 0 -34 51 -55 100 -41 28 8 40 16 28 17 -12 1 -18 23 -14 49 7 33 0 46 -22 46 -18 0 -32 -12 -32 -26z"/> <path d="M4395 3532 c-34 -33 -23 -154 12 -140 21 8 43 168 24 168 -4 0 -21 -13 -36 -28z"/> <path d="M2118 3476 c-17 -70 -14 -73 49 -51 77 26 97 41 43 32 -22 -3 -51 1 -65 10 -14 8 -26 13 -27 9z"/> <path d="M3673 3447 c-7 -8 -13 -53 -13 -102 0 -48 -7 -83 -16 -77 -22 13 15 -273 38 -297 11 -12 18 -7 18 13 0 18 6 48 13 68 9 22 6 30 -7 21 -34 -20 -46 111 -15 161 22 33 22 45 3 53 -17 7 -16 10 3 11 22 2 23 8 3 32 -14 17 -19 51 -12 80 13 51 9 60 -15 37z"/> <path d="M5645 3415 c-42 -55 -47 -75 -17 -75 36 0 80 72 54 89 -9 6 -26 -1 -37 -14z"/> <path d="M2408 3384 c5 -9 -8 -29 -29 -45 -55 -39 -49 -53 26 -53 36 0 49 4 30 8 -39 10 -46 37 -15 56 26 16 26 50 -1 50 -12 0 -17 -7 -11 -16z"/> <path d="M5457 3338 c-14 -9 -19 -22 -12 -30 8 -8 -5 -24 -30 -37 -25 -12 -58 -49 -73 -81 -16 -32 -47 -75 -70 -94 l-42 -36 40 -35 c38 -32 39 -37 8 -68 -26 -25 -32 -64 -28 -174 5 -131 3 -140 -30 -123 -54 29 -99 -31 -50 -67 20 -15 36 -54 38 -90 2 -50 11 -63 45 -63 42 0 163 -141 193 -225 19 -53 68 -42 96 22 24 55 31 58 172 61 159 4 161 3 114 -69 -22 -33 -28 -70 -20 -117 10 -50 5 -70 -18 -79 -16 -6 -30 -25 -30 -40 0 -41 -59 -59 -73 -22 -7 17 4 61 24 97 62 116 15 166 -76 81 -52 -48 -57 -49 -104 -18 -48 32 -50 31 -90 -34 -69 -113 -33 -144 94 -80 l78 40 35 -58 c33 -56 33 -62 -2 -120 -30 -51 -31 -64 -8 -78 17 -10 23 -34 16 -62 -8 -30 -1 -54 20 -70 26 -18 5 -22 -102 -16 -124 6 -132 4 -102 -26 51 -51 193 -71 222 -31 58 80 236 624 256 784 4 39 15 95 22 125 17 66 -6 70 -67 14 -32 -30 -60 -39 -99 -30 -40 9 -67 0 -105 -35 -78 -73 -136 20 -78 127 16 30 14 39 -7 39 -40 0 -89 61 -97 120 -9 64 -62 65 -77 2 -13 -58 -63 -93 -107 -76 -47 18 -44 144 4 178 45 32 68 139 44 203 -20 53 -9 78 53 110 61 32 81 29 96 -17 7 -22 26 -40 43 -40 16 0 24 9 17 20 -7 11 -3 20 9 20 11 0 21 20 21 44 0 55 -128 176 -163 154z m85 -801 c49 -92 -9 -211 -79 -160 -18 13 -62 37 -98 54 -64 29 -76 56 -53 117 18 46 204 37 230 -11z"/> <path d="M5907 3330 c-7 -18 -25 -28 -40 -22 -15 6 -27 -2 -27 -19 0 -16 -13 -29 -30 -29 -53 0 -39 -117 16 -131 38 -9 45 -22 38 -70 -7 -48 -1 -59 30 -59 35 0 38 14 34 140 -3 77 4 140 14 140 24 0 23 55 -2 70 -11 7 -26 -2 -33 -20z"/> <path d="M880 2970 c-13 -16 -32 -25 -41 -19 -9 5 -22 0 -29 -11 -7 -12 -6 -20 4 -18 39 7 67 -3 57 -21 -6 -10 0 -25 14 -33 14 -8 19 -7 11 1 -8 9 -1 29 15 45 32 32 39 86 11 86 -9 0 -28 -13 -42 -30z"/> <path d="M5533 2950 c-65 -49 -29 -126 62 -134 52 -4 80 -19 96 -50 35 -71 70 -25 64 85 -5 95 -7 99 -60 93 -30 -4 -55 3 -55 15 0 30 -63 25 -107 -9z"/> <path d="M2140 2910 c-17 -21 -18 -30 -2 -30 12 0 22 -31 22 -69 0 -50 12 -76 41 -92 34 -18 37 -27 17 -51 -19 -23 -19 -35 0 -54 19 -19 21 -16 11 11 -11 29 -2 35 54 35 37 0 108 12 157 27 157 47 311 -74 185 -145 -33 -18 -33 -20 1 -33 20 -8 46 -5 58 7 11 11 32 17 46 11 14 -5 30 5 37 23 8 21 -2 37 -32 48 -29 11 -45 33 -45 63 0 31 -22 63 -64 91 -36 23 -58 49 -51 57 8 7 -1 7 -19 0 -19 -7 -50 -2 -70 10 -31 20 -29 21 14 11 42 -10 45 -9 15 10 -19 12 -43 17 -53 11 -10 -6 -66 11 -125 39 -124 58 -163 61 -197 20z m300 -96 c52 -36 5 -86 -100 -107 -60 -12 -65 -10 -51 25 9 21 20 58 26 81 10 49 57 49 125 1z"/> <path d="M1389 2882 c11 -19 8 -24 -11 -18 -69 23 -111 -126 -43 -155 47 -19 170 -11 195 14 13 13 13 18 0 14 -42 -12 -112 45 -101 81 7 22 -2 48 -22 64 -29 24 -32 24 -18 0z"/> <path d="M5922 2830 c-43 -24 -142 -124 -142 -144 0 -4 16 -5 35 -2 19 3 33 -4 31 -17 -8 -40 68 -6 89 40 73 158 72 169 -13 123z"/> <path d="M1851 2736 c-7 -57 -26 -127 -41 -155 -79 -146 -97 -205 -73 -244 20 -31 18 -40 -12 -51 -19 -7 -56 -34 -82 -59 l-47 -46 160 -151 c128 -120 242 -263 359 -448 21 -35 77 69 73 138 -4 89 10 100 48 38 22 -33 32 -37 56 -16 21 17 23 31 9 45 -12 12 -21 37 -21 57 0 20 -17 75 -37 121 -21 47 -47 110 -60 140 -12 30 -36 55 -53 55 -16 0 -30 9 -30 20 0 11 -20 20 -46 20 -65 0 -134 55 -134 106 1 32 5 37 18 17 12 -20 19 -16 27 15 18 67 -5 122 -52 124 -24 0 -32 6 -18 11 14 6 21 18 15 27 -6 9 1 29 16 43 14 15 34 45 43 67 15 36 18 36 26 5 4 -19 17 -35 28 -35 10 0 14 -9 7 -20 -7 -11 -3 -20 7 -20 11 0 26 18 33 41 11 35 18 37 45 15 26 -22 30 -21 22 4 -6 17 -32 33 -59 37 -45 8 -46 9 -8 24 37 15 -11 30 -73 22 -7 -1 -18 25 -24 58 -7 34 -25 59 -42 59 -17 0 -31 9 -31 20 0 67 -37 3 -49 -84z m109 -656 c59 -58 140 -81 140 -40 0 11 14 20 32 20 18 0 26 -11 20 -25 -7 -14 -17 -40 -24 -58 -11 -32 -89 -77 -134 -77 -103 0 -226 203 -137 227 18 4 35 9 37 11 3 1 32 -25 66 -58z m268 -186 c11 -92 10 -94 -31 -73 -26 14 -37 15 -29 2 7 -11 3 -26 -9 -34 -27 -16 -16 75 18 159 30 72 37 65 51 -54z"/> <path d="M4369 2795 c6 -25 18 -84 28 -131 10 -47 24 -91 30 -98 23 -22 14 139 -11 208 -27 74 -62 90 -47 21z"/> <path d="M1740 2772 c0 -46 53 -79 68 -41 20 54 14 69 -28 69 -22 0 -40 -12 -40 -28z"/> <path d="M4088 2745 c13 -19 9 -23 -15 -13 -40 15 -47 -57 -8 -86 75 -56 114 3 50 75 -25 28 -37 39 -27 24z"/> <path d="M4160 2704 c0 -9 12 -33 27 -53 34 -47 19 -138 -21 -122 -16 6 -49 11 -73 11 -26 0 -51 18 -63 45 -26 58 -101 70 -128 19 -18 -33 -14 -37 29 -29 67 13 74 -146 9 -205 -103 -93 -12 -139 100 -50 45 36 94 59 110 53 17 -7 30 -4 30 5 0 10 26 28 58 41 60 25 81 69 82 168 0 41 -8 54 -28 46 -17 -6 -42 10 -61 38 -31 47 -71 66 -71 33z"/> <path d="M1101 2563 c-14 -34 -39 -63 -55 -63 -15 0 -23 -8 -17 -18 6 -10 0 -23 -14 -29 -14 -5 18 -8 70 -7 104 3 167 -34 115 -67 -27 -16 -27 -19 0 -21 89 -9 117 -15 187 -45 93 -39 114 -30 95 40 -16 62 -93 101 -110 56 -20 -53 -87 -31 -132 42 -24 38 -55 81 -69 95 -13 14 -29 37 -34 53 -6 17 -19 4 -36 -36z"/> <path d="M740 2520 c-27 -18 -27 -22 0 -40 34 -23 -32 -20 -70 3 -44 27 -155 42 -141 19 7 -12 1 -22 -13 -22 -15 0 -43 -19 -63 -42 -34 -40 -34 -41 1 -30 40 13 304 -32 347 -58 18 -12 22 -7 13 17 -7 18 -4 33 7 33 10 0 19 -8 19 -18 0 -46 71 -4 76 45 7 58 -24 72 -44 20 -12 -30 -16 -29 -43 5 -17 22 -27 26 -24 11 3 -16 -5 -32 -17 -36 -13 -5 -20 16 -18 52 2 34 3 61 2 61 -1 0 -15 -9 -32 -20z"/> <path d="M2280 2480 c0 -22 -11 -40 -24 -40 -13 0 -4 -18 20 -40 26 -24 38 -54 31 -75 -6 -22 -4 -26 6 -13 9 12 33 20 52 17 19 -3 35 4 35 15 0 11 -13 15 -30 9 -34 -13 -38 3 -11 45 12 19 6 45 -16 75 -41 57 -63 59 -63 7z"/> <path d="M4215 2297 c-30 -11 -55 -29 -55 -39 0 -29 54 -21 89 13 27 28 41 52 26 47 -3 0 -30 -10 -60 -21z"/> <path d="M5140 2273 c0 -31 53 -81 107 -100 33 -12 36 -6 24 42 -20 78 -131 128 -131 58z"/> <path d="M1245 2240 c-31 -49 -129 -53 -231 -10 -40 16 -77 22 -82 13 -6 -10 -36 -13 -67 -8 -30 6 -48 3 -40 -5 23 -25 -25 -70 -73 -70 -24 0 -59 18 -78 41 -32 37 -39 38 -77 11 -38 -26 -50 -26 -99 -1 -105 54 -178 30 -178 -59 0 -13 58 -55 130 -93 150 -80 161 -116 50 -164 -121 -53 -224 -1 -188 94 10 24 -2 31 -48 31 -84 0 -124 18 -126 57 0 18 -5 23 -10 11 -12 -29 109 -344 205 -532 l77 -152 100 49 c191 92 324 207 239 207 -38 0 -169 -86 -169 -112 0 -28 -66 -25 -98 5 -19 16 94 114 187 161 105 54 161 100 161 134 0 12 17 25 38 29 30 6 35 -2 27 -35 -13 -48 -8 -50 48 -20 77 41 60 0 -41 -100 -56 -55 -102 -110 -102 -122 0 -11 -21 -30 -46 -42 -79 -36 -111 -106 -41 -90 42 10 49 8 27 -7 -16 -11 -50 -21 -74 -21 -25 0 -75 -27 -113 -60 -69 -61 -116 -82 -76 -34 16 19 11 26 -19 29 -82 6 244 -441 518 -710 211 -207 228 -212 308 -92 72 106 206 186 330 195 53 4 119 13 146 21 42 11 50 6 52 -33 2 -55 33 -176 113 -443 68 -228 66 -240 -29 -134 -39 43 -67 83 -62 89 6 5 3 21 -6 36 -10 14 -17 39 -17 56 -1 16 -18 33 -40 37 -37 7 -37 5 -5 -44 18 -28 25 -56 15 -62 -22 -14 -85 46 -71 69 5 9 -8 12 -29 6 -22 -6 -38 -19 -35 -31 2 -11 -7 -24 -21 -29 -14 -5 -25 0 -25 12 0 12 -14 22 -32 22 -51 0 -168 62 -168 89 0 42 -84 67 -137 40 -111 -58 631 -469 847 -469 l68 0 -12 105 c-7 58 -20 108 -29 112 -10 3 -12 15 -6 25 6 10 2 18 -10 18 -27 0 -28 -54 -1 -70 24 -15 27 -110 3 -110 -57 0 -265 602 -251 729 5 45 -1 53 -31 45 -68 -17 -97 22 -46 64 37 32 40 41 16 61 -35 30 -170 7 -185 -32 -15 -39 -52 -33 -81 13 -29 46 -69 54 -52 11 13 -36 -37 -91 -83 -91 -19 0 -38 -18 -44 -40 -18 -69 -58 -44 -48 30 1 11 -9 5 -24 -14 -15 -18 -52 -40 -82 -47 -41 -11 -49 -19 -29 -31 46 -30 -36 -21 -114 11 -86 36 -82 55 30 164 90 89 131 106 146 62 5 -15 27 -5 59 30 55 60 99 76 54 20 -63 -79 -74 -114 -43 -143 25 -23 32 -23 46 0 10 16 27 29 38 31 44 5 45 8 21 37 -26 31 -16 37 45 31 39 -4 47 39 13 73 -15 15 -6 18 30 11 31 -6 52 -1 52 13 0 28 145 29 174 0 15 -15 25 -15 35 0 7 12 40 22 72 22 46 0 59 9 59 41 0 26 -9 36 -23 27 -12 -7 -203 -16 -424 -20 -221 -3 -390 1 -376 10 19 12 14 20 -20 29 -70 19 -115 14 -67 -7 53 -23 -191 -24 -300 -1 l-80 16 90 6 90 5 -88 12 c-118 16 -134 61 -24 65 45 1 91 4 102 7 11 3 34 6 50 8 17 1 30 17 30 35 0 19 6 28 13 20 7 -7 26 5 41 27 16 22 46 40 67 40 22 0 39 10 39 22 0 12 11 18 24 13 31 -10 60 -115 32 -115 -13 0 -11 -12 4 -30 14 -17 55 -30 91 -30 l66 0 -30 61 c-82 163 -95 372 -35 544 31 87 8 97 -51 22 -33 -42 -41 -46 -41 -17 0 34 -2 34 -37 3 -54 -49 -101 -40 -165 32 -32 36 -58 56 -58 44 0 -12 11 -32 24 -45 13 -13 18 -29 11 -35 -14 -15 -95 63 -95 92 0 12 8 16 19 10 10 -7 21 18 25 54 8 82 116 107 159 37 18 -27 39 -37 68 -30 25 6 53 -2 68 -21 36 -44 101 -40 101 6 0 20 23 61 50 91 48 52 67 112 35 112 -9 0 -27 -18 -40 -40z m-498 -317 l55 -57 -70 -53 c-87 -67 -82 -68 -80 32 2 160 10 166 95 78z m-371 -147 c40 -67 20 -91 -46 -56 -32 17 -50 44 -50 75 0 63 52 53 96 -19z m639 -208 c-66 -78 -84 -90 -118 -81 -23 6 -37 -1 -37 -19 0 -15 -9 -28 -20 -28 -38 0 -20 39 35 74 30 20 72 51 93 70 45 41 83 28 47 -16z m-133 -450 c23 -23 37 -46 32 -51 -5 -5 -22 3 -37 19 -15 15 -39 23 -52 19 -14 -5 -25 6 -25 23 0 44 32 40 82 -10z m267 -41 c-105 -110 -227 -223 -263 -244 -84 -48 89 153 224 261 112 91 133 82 39 -17z m571 -239 c0 -10 -28 -18 -62 -18 -52 0 -59 5 -40 28 24 29 102 21 102 -10z m-200 -15 c0 -9 -18 -33 -40 -53 -22 -20 -40 -29 -40 -19 0 9 -11 6 -24 -7 -29 -29 -56 -31 -56 -4 0 11 12 20 27 20 15 0 43 18 63 40 38 42 70 52 70 23z"/> <path d="M3808 2207 c-8 -31 -24 -64 -36 -74 -16 -11 -15 -19 3 -26 14 -6 21 -17 16 -25 -21 -34 25 -70 57 -43 17 14 45 20 61 14 19 -7 25 -1 18 17 -7 19 2 24 31 16 30 -7 42 -1 42 22 0 23 -19 32 -72 32 -62 0 -71 6 -62 39 5 22 -2 50 -17 62 -22 18 -30 11 -41 -34z"/> <path d="M107 2169 c-15 -39 -1 -53 39 -38 17 7 27 25 21 41 -15 37 -45 36 -60 -3z"/> <path d="M5136 2152 c10 -21 14 -95 9 -165 -9 -112 -7 -126 22 -115 41 15 69 -54 81 -195 6 -73 2 -97 -16 -91 -33 13 -40 -108 -8 -129 19 -12 15 -16 -11 -17 -33 0 -34 -4 -10 -34 15 -18 17 -28 4 -20 -13 8 -27 -3 -33 -26 -6 -22 -2 -40 7 -40 10 0 9 -23 -1 -51 -27 -69 -25 -94 5 -84 14 5 25 19 25 31 0 12 18 43 40 68 44 51 56 114 27 149 -12 15 -12 28 1 36 11 7 17 39 12 72 -4 35 2 59 15 59 16 0 16 7 -1 24 -13 13 -24 51 -25 85 0 34 -13 84 -29 111 -47 81 -8 120 50 50 27 -32 120 -42 120 -12 0 22 -50 64 -84 71 -56 11 -95 36 -85 53 6 10 2 18 -10 18 -11 0 -21 17 -21 39 0 21 -23 64 -51 95 -30 32 -44 40 -33 18z"/> <path d="M1570 2120 c-22 -35 44 -116 128 -159 84 -43 105 -75 91 -145 -15 -76 -16 -195 -2 -209 7 -8 13 1 13 20 0 20 16 33 40 33 22 0 40 -7 40 -15 0 -9 -18 -27 -40 -40 -43 -27 -54 -65 -19 -65 11 0 43 -23 71 -50 90 -90 177 -47 149 72 -23 95 -42 138 -63 138 -10 0 -18 13 -18 30 0 16 -18 41 -40 55 -22 13 -40 33 -40 43 0 62 -286 331 -310 292z"/> <path d="M1394 2045 c-33 -37 -32 -40 5 -74 22 -20 38 -41 36 -48 -11 -36 127 -152 145 -123 29 45 24 60 -19 60 -43 0 -81 55 -81 115 0 75 -46 113 -86 70z"/> <path d="M1281 2014 c-1 -24 154 -206 256 -302 157 -147 157 -120 -1 41 -84 86 -176 184 -204 217 -28 33 -51 53 -51 44z"/> <path d="M5460 1903 c0 -22 10 -66 22 -97 l21 -56 37 70 c39 75 35 88 -35 109 -36 11 -45 6 -45 -26z"/> <path d="M4280 1742 c0 -46 -31 -72 -50 -42 -14 23 -50 8 -50 -21 0 -11 26 -18 58 -15 59 4 101 82 59 108 -9 6 -17 -8 -17 -30z"/> <path d="M3800 1601 c0 -26 10 -36 28 -29 48 18 56 68 11 68 -25 0 -39 -14 -39 -39z"/> <path d="M5551 1509 c-32 -17 -71 -26 -86 -20 -15 6 -22 2 -15 -9 7 -11 -1 -20 -18 -20 -20 0 -26 11 -18 32 10 28 6 28 -29 6 -54 -33 -52 -192 2 -182 85 15 50 -20 -238 -241 -206 -157 -304 -252 -540 -524 -244 -281 -343 -360 -365 -293 -5 16 -16 17 -32 4 -17 -14 -25 -6 -28 30 -2 29 5 45 16 38 11 -7 20 -3 20 9 0 64 -111 -27 -131 -107 -12 -46 -83 -129 -95 -110 -8 12 -55 145 -60 168 -9 43 -174 111 -174 72 0 -20 78 -82 104 -82 12 0 17 -6 10 -13 -7 -7 9 -30 36 -51 48 -38 53 -154 7 -173 -31 -12 -18 -43 18 -43 205 3 903 444 1071 678 41 57 83 99 92 93 9 -5 38 15 64 44 44 50 45 52 3 17 -102 -86 -35 9 97 139 139 136 269 312 356 484 47 94 33 106 -67 54z"/> <path d="M2041 1369 l-108 -106 74 -90 c40 -50 91 -96 113 -103 22 -7 40 -30 40 -51 0 -24 14 -39 35 -39 56 1 78 26 76 90 0 33 -8 56 -16 50 -8 -5 -29 11 -47 36 -18 26 -44 42 -58 37 -57 -22 -67 32 -14 77 82 67 180 113 194 90 19 -31 47 -24 42 10 -19 127 -200 126 -331 -1z"/> <path d="M3625 1411 c-25 -11 -45 -29 -45 -38 0 -29 -89 -102 -131 -110 -22 -3 -57 -22 -79 -42 -66 -58 -233 -142 -299 -150 -35 -5 -132 -49 -217 -100 -86 -50 -167 -91 -182 -91 -15 0 -38 -14 -52 -30 -14 -16 -33 -30 -44 -30 -10 0 -32 -14 -49 -30 -45 -45 -1 -37 154 29 142 61 166 58 104 -10 -38 -42 -52 -109 -23 -109 10 0 18 -9 18 -20 0 -11 -13 -20 -28 -20 -16 0 -33 -11 -39 -25 -7 -19 -15 -18 -30 4 -24 34 -57 -20 -35 -56 7 -10 -3 -24 -20 -31 -21 -8 -29 -27 -22 -54 6 -23 3 -65 -8 -93 -15 -38 -12 -59 13 -86 21 -23 24 -39 10 -48 -31 -20 -26 -122 8 -151 26 -21 26 -28 0 -54 -33 -33 -22 -66 22 -66 16 0 29 17 29 38 0 21 8 42 18 45 11 4 43 115 72 247 110 506 183 670 278 627 41 -18 59 -14 115 28 37 27 78 46 92 41 14 -5 25 0 25 12 0 12 20 22 45 23 58 0 118 46 109 81 -4 16 -4 21 1 13 23 -42 99 16 89 68 -1 7 16 29 38 48 32 30 37 31 28 5 -10 -24 -1 -31 37 -29 42 3 46 9 29 41 -17 31 -15 36 12 26 17 -7 32 -4 32 7 0 10 -9 19 -20 19 -38 0 -20 37 21 44 38 6 38 7 5 27 -25 14 -50 14 -81 0z m-893 -934 c-40 -12 -40 -13 -2 -15 31 -2 34 -7 12 -20 -16 -11 -23 -35 -17 -60 8 -28 2 -42 -18 -42 -21 0 -24 -9 -9 -37 22 -41 -5 -83 -54 -83 -23 0 -24 6 -6 28 39 47 42 110 6 131 -32 19 -32 20 0 20 18 1 40 11 48 24 9 14 5 18 -9 9 -13 -8 -23 -6 -23 5 0 11 -5 33 -11 49 -9 22 1 27 40 19 40 -7 51 -1 52 28 2 34 3 34 18 -3 12 -31 6 -43 -27 -53z"/> <path d="M2487 1148 c-20 -42 -18 -48 15 -48 24 0 38 14 38 39 0 59 -28 64 -53 9z"/> <path d="M1965 967 c4 -42 22 -99 40 -127 17 -27 36 -77 41 -110 25 -159 40 -228 68 -316 39 -123 54 -107 47 51 -3 69 -6 163 -7 210 -2 47 -10 85 -20 85 -9 0 -10 10 -3 21 7 12 -5 42 -27 65 -21 24 -54 73 -72 108 -49 97 -76 102 -67 13z"/> <path d="M3029 855 c-8 -25 -22 -50 -32 -57 -10 -6 -20 -40 -23 -74 -2 -35 -10 -64 -18 -64 -36 0 -80 -344 -51 -405 12 -26 8 -35 -19 -37 -21 -1 -26 -5 -11 -11 35 -14 31 -47 -5 -47 -18 0 -30 -19 -30 -48 0 -27 -5 -63 -12 -80 -10 -27 5 -32 88 -32 l100 0 24 202 c14 111 42 275 63 365 55 230 51 273 -23 313 -30 16 -40 12 -51 -25z"/> <path d="M3225 826 c19 -5 35 -21 35 -36 0 -15 18 -33 40 -40 22 -7 40 -22 40 -33 0 -10 9 -14 20 -7 35 21 22 70 -19 70 -46 0 -72 32 -36 47 14 5 -6 10 -45 9 -38 0 -54 -5 -35 -10z"/> <path d="M4186 751 c-9 -16 -39 -38 -66 -50 l-50 -20 58 4 c54 5 145 95 95 95 -11 0 -28 -13 -37 -29z"/> <path d="M2252 728 c-5 -14 1 -29 14 -34 18 -7 18 -20 -3 -54 -34 -58 -1 -148 83 -225 62 -58 59 -70 -9 -33 -22 12 -45 16 -51 11 -11 -11 56 -87 68 -78 15 12 46 3 46 -14 0 -10 -27 -15 -60 -10 -66 8 -73 0 -35 -40 63 -67 95 -114 95 -141 0 -19 -12 -24 -35 -16 -30 12 -31 9 -8 -19 14 -18 22 -41 16 -50 -6 -9 16 -19 48 -21 57 -4 59 -1 59 81 0 47 6 203 13 348 15 312 8 346 -62 299 -27 -17 -54 -24 -60 -14 -18 30 -108 38 -119 10z"/> <path d="M4375 702 c-7 -27 2 -42 29 -49 29 -7 36 -2 28 20 -7 17 -12 39 -12 49 0 34 -35 18 -45 -20z"/> <path d="M3249 678 c-14 -23 7 -500 22 -516 5 -5 9 114 9 265 0 267 -4 296 -31 251z"/> <path d="M1586 629 c-48 -60 -32 -118 40 -136 31 -8 33 -17 15 -51 -18 -33 -16 -39 7 -30 45 17 48 50 14 165 l-32 106 -44 -54z"/> <path d="M3367 370 c11 -370 11 -370 129 -370 80 0 87 3 56 26 -60 44 -101 397 -51 447 14 14 -5 48 -61 109 l-82 88 9 -300z"/> <path d="M3692 499 c-22 -21 -35 -42 -30 -46 17 -15 139 49 128 67 -19 30 -56 22 -98 -21z"/> <path d="M1720 481 c0 -44 31 -71 49 -43 14 24 -8 82 -31 82 -10 0 -18 -17 -18 -39z"/> <path d="M4205 476 c3 -15 -17 -29 -49 -32 -29 -4 -65 -22 -79 -40 -21 -28 -21 -30 2 -10 16 14 53 19 89 12 34 -6 55 -5 47 4 -8 9 -5 28 6 41 15 18 14 29 -1 39 -11 7 -19 1 -15 -14z"/> <path d="M3160 285 c0 -21 -6 -44 -14 -52 -38 -38 -27 -233 14 -233 44 0 63 283 20 310 -11 7 -20 -5 -20 -25z"/> </g> </svg> 